%TF.GenerationSoftware,KiCad,Pcbnew,(6.0.4)*%
%TF.CreationDate,2023-08-09T14:35:33-04:00*%
%TF.ProjectId,MS32,4d533332-2e6b-4696-9361-645f70636258,rev?*%
%TF.SameCoordinates,Original*%
%TF.FileFunction,Legend,Top*%
%TF.FilePolarity,Positive*%
%FSLAX46Y46*%
G04 Gerber Fmt 4.6, Leading zero omitted, Abs format (unit mm)*
G04 Created by KiCad (PCBNEW (6.0.4)) date 2023-08-09 14:35:33*
%MOMM*%
%LPD*%
G01*
G04 APERTURE LIST*
%ADD10C,0.150000*%
%ADD11C,0.120000*%
G04 APERTURE END LIST*
D10*
%TO.C,U1*%
X111847619Y-104638095D02*
X111038095Y-104638095D01*
X110942857Y-104685714D01*
X110895238Y-104733333D01*
X110847619Y-104828571D01*
X110847619Y-105019047D01*
X110895238Y-105114285D01*
X110942857Y-105161904D01*
X111038095Y-105209523D01*
X111847619Y-105209523D01*
X110847619Y-106209523D02*
X110847619Y-105638095D01*
X110847619Y-105923809D02*
X111847619Y-105923809D01*
X111704761Y-105828571D01*
X111609523Y-105733333D01*
X111561904Y-105638095D01*
%TO.C,J2*%
X110516666Y-97447380D02*
X110516666Y-98161666D01*
X110469047Y-98304523D01*
X110373809Y-98399761D01*
X110230952Y-98447380D01*
X110135714Y-98447380D01*
X110945238Y-97542619D02*
X110992857Y-97495000D01*
X111088095Y-97447380D01*
X111326190Y-97447380D01*
X111421428Y-97495000D01*
X111469047Y-97542619D01*
X111516666Y-97637857D01*
X111516666Y-97733095D01*
X111469047Y-97875952D01*
X110897619Y-98447380D01*
X111516666Y-98447380D01*
%TO.C,J1*%
X100516666Y-97622380D02*
X100516666Y-98336666D01*
X100469047Y-98479523D01*
X100373809Y-98574761D01*
X100230952Y-98622380D01*
X100135714Y-98622380D01*
X101516666Y-98622380D02*
X100945238Y-98622380D01*
X101230952Y-98622380D02*
X101230952Y-97622380D01*
X101135714Y-97765238D01*
X101040476Y-97860476D01*
X100945238Y-97908095D01*
D11*
%TO.C,U1*%
X107200000Y-105050000D02*
X104300000Y-105050000D01*
X104300000Y-105050000D02*
X104300000Y-107250000D01*
X104300000Y-107250000D02*
X107200000Y-107250000D01*
X107200000Y-107250000D02*
X107200000Y-105050000D01*
%TO.C,J2*%
X112180000Y-101595000D02*
X112180000Y-111815000D01*
X109520000Y-98995000D02*
X110850000Y-98995000D01*
X109520000Y-101595000D02*
X109520000Y-111815000D01*
X109520000Y-111815000D02*
X112180000Y-111815000D01*
X109520000Y-101595000D02*
X112180000Y-101595000D01*
X109520000Y-100325000D02*
X109520000Y-98995000D01*
%TO.C,J1*%
X102180000Y-101770000D02*
X102180000Y-111990000D01*
X99520000Y-99170000D02*
X100850000Y-99170000D01*
X99520000Y-101770000D02*
X99520000Y-111990000D01*
X99520000Y-111990000D02*
X102180000Y-111990000D01*
X99520000Y-101770000D02*
X102180000Y-101770000D01*
X99520000Y-100500000D02*
X99520000Y-99170000D01*
%TD*%
M02*
