%TF.GenerationSoftware,KiCad,Pcbnew,(6.0.4)*%
%TF.CreationDate,2023-08-09T14:35:33-04:00*%
%TF.ProjectId,MS32,4d533332-2e6b-4696-9361-645f70636258,rev?*%
%TF.SameCoordinates,Original*%
%TF.FileFunction,Copper,L1,Top*%
%TF.FilePolarity,Positive*%
%FSLAX46Y46*%
G04 Gerber Fmt 4.6, Leading zero omitted, Abs format (unit mm)*
G04 Created by KiCad (PCBNEW (6.0.4)) date 2023-08-09 14:35:33*
%MOMM*%
%LPD*%
G01*
G04 APERTURE LIST*
%TA.AperFunction,SMDPad,CuDef*%
%ADD10R,0.300000X0.250000*%
%TD*%
%TA.AperFunction,ComponentPad*%
%ADD11R,1.700000X1.700000*%
%TD*%
%TA.AperFunction,ComponentPad*%
%ADD12O,1.700000X1.700000*%
%TD*%
G04 APERTURE END LIST*
D10*
%TO.P,U1,8,VCC*%
%TO.N,+5V*%
X106850000Y-106850000D03*
%TO.P,U1,7,NC*%
%TO.N,unconnected-(U1-Pad7)*%
X106850000Y-106350000D03*
%TO.P,U1,6,NC*%
%TO.N,unconnected-(U1-Pad6)*%
X106850000Y-105850000D03*
%TO.P,U1,5,-Vo*%
%TO.N,Net-(J2-Pad1)*%
X106850000Y-105350000D03*
%TO.P,U1,4,GND*%
%TO.N,GND*%
X104650000Y-105350000D03*
%TO.P,U1,3,NC*%
%TO.N,unconnected-(U1-Pad3)*%
X104650000Y-105850000D03*
%TO.P,U1,2,NC*%
%TO.N,unconnected-(U1-Pad2)*%
X104650000Y-106350000D03*
%TO.P,U1,1,+Vo*%
%TO.N,Net-(J1-Pad4)*%
X104650000Y-106850000D03*
%TD*%
D11*
%TO.P,J2,1,Pin_1*%
%TO.N,Net-(J2-Pad1)*%
X110850000Y-100325000D03*
D12*
%TO.P,J2,2,Pin_2*%
X110850000Y-102865000D03*
%TO.P,J2,3,Pin_3*%
%TO.N,+5V*%
X110850000Y-105405000D03*
%TO.P,J2,4,Pin_4*%
X110850000Y-107945000D03*
%TO.P,J2,5,Pin_5*%
X110850000Y-110485000D03*
%TD*%
D11*
%TO.P,J1,1,Pin_1*%
%TO.N,GND*%
X100850000Y-100500000D03*
D12*
%TO.P,J1,2,Pin_2*%
X100850000Y-103040000D03*
%TO.P,J1,3,Pin_3*%
X100850000Y-105580000D03*
%TO.P,J1,4,Pin_4*%
%TO.N,Net-(J1-Pad4)*%
X100850000Y-108120000D03*
%TO.P,J1,5,Pin_5*%
X100850000Y-110660000D03*
%TD*%
%TA.AperFunction,Conductor*%
%TO.N,GND*%
G36*
X105492121Y-99170002D02*
G01*
X105538614Y-99223658D01*
X105550000Y-99276000D01*
X105550000Y-105424000D01*
X105529998Y-105492121D01*
X105476342Y-105538614D01*
X105424000Y-105550000D01*
X104930444Y-105550000D01*
X104885648Y-105541089D01*
X104878231Y-105536133D01*
X104819748Y-105524500D01*
X104480252Y-105524500D01*
X104421769Y-105536133D01*
X104414352Y-105541089D01*
X104369556Y-105550000D01*
X103400000Y-105550000D01*
X103400000Y-106624000D01*
X103379998Y-106692121D01*
X103326342Y-106738614D01*
X103274000Y-106750000D01*
X99676000Y-106750000D01*
X99607879Y-106729998D01*
X99561386Y-106676342D01*
X99550000Y-106624000D01*
X99550000Y-99276000D01*
X99570002Y-99207879D01*
X99623658Y-99161386D01*
X99676000Y-99150000D01*
X105424000Y-99150000D01*
X105492121Y-99170002D01*
G37*
%TD.AperFunction*%
%TD*%
%TA.AperFunction,Conductor*%
%TO.N,Net-(J1-Pad4)*%
G36*
X104357967Y-106621235D02*
G01*
X104421769Y-106663867D01*
X104433938Y-106666288D01*
X104433939Y-106666288D01*
X104470992Y-106673658D01*
X104480252Y-106675500D01*
X104819748Y-106675500D01*
X104829008Y-106673658D01*
X104866061Y-106666288D01*
X104866062Y-106666288D01*
X104878231Y-106663867D01*
X104942033Y-106621235D01*
X105012036Y-106600000D01*
X105424000Y-106600000D01*
X105492121Y-106620002D01*
X105538614Y-106673658D01*
X105550000Y-106726000D01*
X105550000Y-111874000D01*
X105529998Y-111942121D01*
X105476342Y-111988614D01*
X105424000Y-112000000D01*
X99726000Y-112000000D01*
X99657879Y-111979998D01*
X99611386Y-111926342D01*
X99600000Y-111874000D01*
X99600000Y-107176000D01*
X99620002Y-107107879D01*
X99673658Y-107061386D01*
X99726000Y-107050000D01*
X103800000Y-107050000D01*
X103800000Y-106726000D01*
X103820002Y-106657879D01*
X103873658Y-106611386D01*
X103926000Y-106600000D01*
X104287964Y-106600000D01*
X104357967Y-106621235D01*
G37*
%TD.AperFunction*%
%TD*%
%TA.AperFunction,Conductor*%
%TO.N,Net-(J2-Pad1)*%
G36*
X112092121Y-99170002D02*
G01*
X112138614Y-99223658D01*
X112150000Y-99276000D01*
X112150000Y-104024000D01*
X112129998Y-104092121D01*
X112076342Y-104138614D01*
X112024000Y-104150000D01*
X108150000Y-104150000D01*
X108150000Y-105424000D01*
X108129998Y-105492121D01*
X108076342Y-105538614D01*
X108024000Y-105550000D01*
X107130444Y-105550000D01*
X107085648Y-105541089D01*
X107078231Y-105536133D01*
X107019748Y-105524500D01*
X106680252Y-105524500D01*
X106621769Y-105536133D01*
X106614352Y-105541089D01*
X106569556Y-105550000D01*
X106026000Y-105550000D01*
X105957879Y-105529998D01*
X105911386Y-105476342D01*
X105900000Y-105424000D01*
X105900000Y-99276000D01*
X105920002Y-99207879D01*
X105973658Y-99161386D01*
X106026000Y-99150000D01*
X112024000Y-99150000D01*
X112092121Y-99170002D01*
G37*
%TD.AperFunction*%
%TD*%
%TA.AperFunction,Conductor*%
%TO.N,+5V*%
G36*
X112092121Y-104470002D02*
G01*
X112138614Y-104523658D01*
X112150000Y-104576000D01*
X112150000Y-111874000D01*
X112129998Y-111942121D01*
X112076342Y-111988614D01*
X112024000Y-112000000D01*
X106026000Y-112000000D01*
X105957879Y-111979998D01*
X105911386Y-111926342D01*
X105900000Y-111874000D01*
X105900000Y-106726000D01*
X105920002Y-106657879D01*
X105973658Y-106611386D01*
X106026000Y-106600000D01*
X106487964Y-106600000D01*
X106557967Y-106621235D01*
X106621769Y-106663867D01*
X106633938Y-106666288D01*
X106633939Y-106666288D01*
X106674184Y-106674293D01*
X106680252Y-106675500D01*
X107019748Y-106675500D01*
X107025816Y-106674293D01*
X107066061Y-106666288D01*
X107066062Y-106666288D01*
X107078231Y-106663867D01*
X107142033Y-106621235D01*
X107212036Y-106600000D01*
X108600000Y-106600000D01*
X108600000Y-104576000D01*
X108620002Y-104507879D01*
X108673658Y-104461386D01*
X108726000Y-104450000D01*
X112024000Y-104450000D01*
X112092121Y-104470002D01*
G37*
%TD.AperFunction*%
%TD*%
M02*
