%TF.GenerationSoftware,KiCad,Pcbnew,(6.0.4)*%
%TF.CreationDate,2023-08-09T15:54:22-04:00*%
%TF.ProjectId,ENS160,454e5331-3630-42e6-9b69-6361645f7063,rev?*%
%TF.SameCoordinates,Original*%
%TF.FileFunction,Legend,Top*%
%TF.FilePolarity,Positive*%
%FSLAX46Y46*%
G04 Gerber Fmt 4.6, Leading zero omitted, Abs format (unit mm)*
G04 Created by KiCad (PCBNEW (6.0.4)) date 2023-08-09 15:54:22*
%MOMM*%
%LPD*%
G01*
G04 APERTURE LIST*
%ADD10C,0.150000*%
%ADD11C,0.120000*%
G04 APERTURE END LIST*
D10*
%TO.C,J1*%
X137641666Y-106522380D02*
X137641666Y-107236666D01*
X137594047Y-107379523D01*
X137498809Y-107474761D01*
X137355952Y-107522380D01*
X137260714Y-107522380D01*
X138641666Y-107522380D02*
X138070238Y-107522380D01*
X138355952Y-107522380D02*
X138355952Y-106522380D01*
X138260714Y-106665238D01*
X138165476Y-106760476D01*
X138070238Y-106808095D01*
%TO.C,J2*%
X149591666Y-106372380D02*
X149591666Y-107086666D01*
X149544047Y-107229523D01*
X149448809Y-107324761D01*
X149305952Y-107372380D01*
X149210714Y-107372380D01*
X150020238Y-106467619D02*
X150067857Y-106420000D01*
X150163095Y-106372380D01*
X150401190Y-106372380D01*
X150496428Y-106420000D01*
X150544047Y-106467619D01*
X150591666Y-106562857D01*
X150591666Y-106658095D01*
X150544047Y-106800952D01*
X149972619Y-107372380D01*
X150591666Y-107372380D01*
%TO.C,U1*%
X150497619Y-98263095D02*
X149688095Y-98263095D01*
X149592857Y-98310714D01*
X149545238Y-98358333D01*
X149497619Y-98453571D01*
X149497619Y-98644047D01*
X149545238Y-98739285D01*
X149592857Y-98786904D01*
X149688095Y-98834523D01*
X150497619Y-98834523D01*
X149497619Y-99834523D02*
X149497619Y-99263095D01*
X149497619Y-99548809D02*
X150497619Y-99548809D01*
X150354761Y-99453571D01*
X150259523Y-99358333D01*
X150211904Y-99263095D01*
D11*
%TO.C,J1*%
X136645000Y-105630000D02*
X136645000Y-104300000D01*
X137975000Y-105630000D02*
X136645000Y-105630000D01*
X139305000Y-103030000D02*
X139305000Y-92810000D01*
X139305000Y-103030000D02*
X136645000Y-103030000D01*
X136645000Y-103030000D02*
X136645000Y-92810000D01*
X139305000Y-92810000D02*
X136645000Y-92810000D01*
%TO.C,J2*%
X151255000Y-102880000D02*
X151255000Y-92660000D01*
X151255000Y-92660000D02*
X148595000Y-92660000D01*
X149925000Y-105480000D02*
X148595000Y-105480000D01*
X148595000Y-102880000D02*
X148595000Y-92660000D01*
X151255000Y-102880000D02*
X148595000Y-102880000D01*
X148595000Y-105480000D02*
X148595000Y-104150000D01*
%TO.C,U1*%
X145550000Y-97225000D02*
X142150000Y-97225000D01*
X142150000Y-97225000D02*
X142150000Y-100675000D01*
X142150000Y-100675000D02*
X145550000Y-100675000D01*
X145550000Y-100675000D02*
X145550000Y-97225000D01*
%TD*%
M02*
