%TF.GenerationSoftware,KiCad,Pcbnew,(6.0.4)*%
%TF.CreationDate,2023-08-09T15:54:22-04:00*%
%TF.ProjectId,ENS160,454e5331-3630-42e6-9b69-6361645f7063,rev?*%
%TF.SameCoordinates,Original*%
%TF.FileFunction,Copper,L1,Top*%
%TF.FilePolarity,Positive*%
%FSLAX46Y46*%
G04 Gerber Fmt 4.6, Leading zero omitted, Abs format (unit mm)*
G04 Created by KiCad (PCBNEW (6.0.4)) date 2023-08-09 15:54:22*
%MOMM*%
%LPD*%
G01*
G04 APERTURE LIST*
%TA.AperFunction,ComponentPad*%
%ADD10R,1.700000X1.700000*%
%TD*%
%TA.AperFunction,ComponentPad*%
%ADD11O,1.700000X1.700000*%
%TD*%
%TA.AperFunction,SMDPad,CuDef*%
%ADD12R,0.700000X0.700000*%
%TD*%
G04 APERTURE END LIST*
D10*
%TO.P,J1,1,Pin_1*%
%TO.N,+3V3*%
X137975000Y-104300000D03*
D11*
%TO.P,J1,2,Pin_2*%
%TO.N,+1V8*%
X137975000Y-101760000D03*
%TO.P,J1,3,Pin_3*%
%TO.N,Net-(J1-Pad3)*%
X137975000Y-99220000D03*
%TO.P,J1,4,Pin_4*%
%TO.N,Net-(J1-Pad4)*%
X137975000Y-96680000D03*
%TO.P,J1,5,Pin_5*%
%TO.N,Net-(J1-Pad5)*%
X137975000Y-94140000D03*
%TD*%
D10*
%TO.P,J2,1,Pin_1*%
%TO.N,Net-(J2-Pad1)*%
X149925000Y-104150000D03*
D11*
%TO.P,J2,2,Pin_2*%
%TO.N,Net-(J2-Pad2)*%
X149925000Y-101610000D03*
%TO.P,J2,3,Pin_3*%
%TO.N,GND*%
X149925000Y-99070000D03*
%TO.P,J2,4,Pin_4*%
X149925000Y-96530000D03*
%TO.P,J2,5,Pin_5*%
X149925000Y-93990000D03*
%TD*%
D12*
%TO.P,U1,1,MOSI/SDA*%
%TO.N,Net-(J1-Pad5)*%
X144900000Y-97875000D03*
%TO.P,U1,2,SCLK/SCL*%
%TO.N,Net-(J1-Pad4)*%
X143850000Y-97875000D03*
%TO.P,U1,3,MISO/ADDR*%
%TO.N,Net-(J1-Pad3)*%
X142800000Y-97875000D03*
%TO.P,U1,4,VDD*%
%TO.N,+1V8*%
X142800000Y-98925000D03*
%TO.P,U1,5,VDDIO*%
%TO.N,+3V3*%
X142800000Y-99975000D03*
%TO.P,U1,6,INTn*%
%TO.N,Net-(J2-Pad1)*%
X143850000Y-99975000D03*
%TO.P,U1,7,CSn*%
%TO.N,Net-(J2-Pad2)*%
X144900000Y-99975000D03*
%TO.P,U1,8,VSS*%
%TO.N,GND*%
X144900000Y-98925000D03*
%TO.P,U1,9,VSS*%
X143850000Y-98925000D03*
%TD*%
%TA.AperFunction,Conductor*%
%TO.N,Net-(J1-Pad3)*%
G36*
X143192121Y-97020002D02*
G01*
X143238614Y-97073658D01*
X143250000Y-97126000D01*
X143250000Y-98174000D01*
X143229998Y-98242121D01*
X143176342Y-98288614D01*
X143124000Y-98300000D01*
X140350000Y-98300000D01*
X140350000Y-100374000D01*
X140329998Y-100442121D01*
X140276342Y-100488614D01*
X140224000Y-100500000D01*
X136776000Y-100500000D01*
X136707879Y-100479998D01*
X136661386Y-100426342D01*
X136650000Y-100374000D01*
X136650000Y-98026000D01*
X136670002Y-97957879D01*
X136723658Y-97911386D01*
X136776000Y-97900000D01*
X139750000Y-97900000D01*
X139750000Y-97126000D01*
X139770002Y-97057879D01*
X139823658Y-97011386D01*
X139876000Y-97000000D01*
X143124000Y-97000000D01*
X143192121Y-97020002D01*
G37*
%TD.AperFunction*%
%TD*%
%TA.AperFunction,Conductor*%
%TO.N,+3V3*%
G36*
X143192121Y-99520002D02*
G01*
X143238614Y-99573658D01*
X143250000Y-99626000D01*
X143250000Y-105524000D01*
X143229998Y-105592121D01*
X143176342Y-105638614D01*
X143124000Y-105650000D01*
X136826000Y-105650000D01*
X136757879Y-105629998D01*
X136711386Y-105576342D01*
X136700000Y-105524000D01*
X136700000Y-103276000D01*
X136720002Y-103207879D01*
X136773658Y-103161386D01*
X136826000Y-103150000D01*
X141500000Y-103150000D01*
X141500000Y-99626000D01*
X141520002Y-99557879D01*
X141573658Y-99511386D01*
X141626000Y-99500000D01*
X143124000Y-99500000D01*
X143192121Y-99520002D01*
G37*
%TD.AperFunction*%
%TD*%
%TA.AperFunction,Conductor*%
%TO.N,Net-(J2-Pad1)*%
G36*
X144242121Y-99520002D02*
G01*
X144288614Y-99573658D01*
X144300000Y-99626000D01*
X144300000Y-103000000D01*
X151074000Y-103000000D01*
X151142121Y-103020002D01*
X151188614Y-103073658D01*
X151200000Y-103126000D01*
X151200000Y-105324000D01*
X151179998Y-105392121D01*
X151126342Y-105438614D01*
X151074000Y-105450000D01*
X143526000Y-105450000D01*
X143457879Y-105429998D01*
X143411386Y-105376342D01*
X143400000Y-105324000D01*
X143400000Y-99626000D01*
X143420002Y-99557879D01*
X143473658Y-99511386D01*
X143526000Y-99500000D01*
X144174000Y-99500000D01*
X144242121Y-99520002D01*
G37*
%TD.AperFunction*%
%TD*%
%TA.AperFunction,Conductor*%
%TO.N,+1V8*%
G36*
X143192121Y-98470002D02*
G01*
X143238614Y-98523658D01*
X143250000Y-98576000D01*
X143250000Y-99224000D01*
X143229998Y-99292121D01*
X143176342Y-99338614D01*
X143124000Y-99350000D01*
X141350000Y-99350000D01*
X141350000Y-102874000D01*
X141329998Y-102942121D01*
X141276342Y-102988614D01*
X141224000Y-103000000D01*
X136778709Y-103000000D01*
X136710588Y-102979998D01*
X136664095Y-102926342D01*
X136652738Y-102871320D01*
X136697376Y-100773320D01*
X136718822Y-100705640D01*
X136773455Y-100660299D01*
X136823347Y-100650000D01*
X140500000Y-100650000D01*
X140500000Y-98576000D01*
X140520002Y-98507879D01*
X140573658Y-98461386D01*
X140626000Y-98450000D01*
X143124000Y-98450000D01*
X143192121Y-98470002D01*
G37*
%TD.AperFunction*%
%TD*%
%TA.AperFunction,Conductor*%
%TO.N,Net-(J1-Pad5)*%
G36*
X145542121Y-92670002D02*
G01*
X145588614Y-92723658D01*
X145600000Y-92776000D01*
X145600000Y-98174000D01*
X145579998Y-98242121D01*
X145526342Y-98288614D01*
X145474000Y-98300000D01*
X144576000Y-98300000D01*
X144507879Y-98279998D01*
X144461386Y-98226342D01*
X144450000Y-98174000D01*
X144450000Y-95250000D01*
X136776000Y-95250000D01*
X136707879Y-95229998D01*
X136661386Y-95176342D01*
X136650000Y-95124000D01*
X136650000Y-92776000D01*
X136670002Y-92707879D01*
X136723658Y-92661386D01*
X136776000Y-92650000D01*
X145474000Y-92650000D01*
X145542121Y-92670002D01*
G37*
%TD.AperFunction*%
%TD*%
%TA.AperFunction,Conductor*%
%TO.N,Net-(J1-Pad4)*%
G36*
X144242121Y-95420002D02*
G01*
X144288614Y-95473658D01*
X144300000Y-95526000D01*
X144300000Y-98174000D01*
X144279998Y-98242121D01*
X144226342Y-98288614D01*
X144174000Y-98300000D01*
X143526000Y-98300000D01*
X143457879Y-98279998D01*
X143411386Y-98226342D01*
X143400000Y-98174000D01*
X143400000Y-96850000D01*
X139600000Y-96850000D01*
X139600000Y-97624000D01*
X139579998Y-97692121D01*
X139526342Y-97738614D01*
X139474000Y-97750000D01*
X136776000Y-97750000D01*
X136707879Y-97729998D01*
X136661386Y-97676342D01*
X136650000Y-97624000D01*
X136650000Y-95526000D01*
X136670002Y-95457879D01*
X136723658Y-95411386D01*
X136776000Y-95400000D01*
X144174000Y-95400000D01*
X144242121Y-95420002D01*
G37*
%TD.AperFunction*%
%TD*%
%TA.AperFunction,Conductor*%
%TO.N,GND*%
G36*
X151192121Y-92670002D02*
G01*
X151238614Y-92723658D01*
X151250000Y-92776000D01*
X151250000Y-100274000D01*
X151229998Y-100342121D01*
X151176342Y-100388614D01*
X151124000Y-100400000D01*
X148726000Y-100400000D01*
X148657879Y-100379998D01*
X148611386Y-100326342D01*
X148600000Y-100274000D01*
X148600000Y-99350000D01*
X143526000Y-99350000D01*
X143457879Y-99329998D01*
X143411386Y-99276342D01*
X143400000Y-99224000D01*
X143400000Y-98576000D01*
X143420002Y-98507879D01*
X143473658Y-98461386D01*
X143526000Y-98450000D01*
X145750000Y-98450000D01*
X145750000Y-92776000D01*
X145770002Y-92707879D01*
X145823658Y-92661386D01*
X145876000Y-92650000D01*
X151124000Y-92650000D01*
X151192121Y-92670002D01*
G37*
%TD.AperFunction*%
%TD*%
%TA.AperFunction,Conductor*%
%TO.N,Net-(J2-Pad2)*%
G36*
X148342121Y-99520002D02*
G01*
X148388614Y-99573658D01*
X148400000Y-99626000D01*
X148400000Y-100550000D01*
X151074000Y-100550000D01*
X151142121Y-100570002D01*
X151188614Y-100623658D01*
X151200000Y-100676000D01*
X151200000Y-102724000D01*
X151179998Y-102792121D01*
X151126342Y-102838614D01*
X151074000Y-102850000D01*
X144576000Y-102850000D01*
X144507879Y-102829998D01*
X144461386Y-102776342D01*
X144450000Y-102724000D01*
X144450000Y-99626000D01*
X144470002Y-99557879D01*
X144523658Y-99511386D01*
X144576000Y-99500000D01*
X148274000Y-99500000D01*
X148342121Y-99520002D01*
G37*
%TD.AperFunction*%
%TD*%
M02*
